<?xml version="1.0" encoding="UTF-8" standalone="no"?>
<!DOCTYPE svg PUBLIC "-//W3C//DTD SVG 1.1//EN" "http://www.w3.org/Graphics/SVG/1.1/DTD/svg11.dtd">
<svg width="100%" height="100%" viewBox="0 0 413 529" version="1.1" xmlns="http://www.w3.org/2000/svg" xmlns:xlink="http://www.w3.org/1999/xlink" xml:space="preserve" xmlns:serif="http://www.serif.com/" style="fill-rule:evenodd;clip-rule:evenodd;stroke-linecap:round;stroke-linejoin:round;stroke-miterlimit:1.5;">
    <g transform="matrix(1,0,0,1,-1198,-2154)">
        <g>
            <g transform="matrix(1.13092,0,0,1.04071,-183.22,-108.812)">
                <path d="M1578.61,2363.59C1577.9,2253.16 1509.3,2181.36 1423.34,2181.36L1384.4,2181.36C1298.43,2181.36 1229.57,2255.62 1228.32,2366.78L1230.3,2481.16C1232.93,2609.27 1301.88,2671.16 1384.4,2673.02L1423.34,2673.02C1513.74,2667.94 1577.21,2605.37 1578.57,2477.21L1578.61,2363.59Z" style="fill:none;stroke:black;stroke-width:7.67px;"/>
            </g>
            <g transform="matrix(1.0513,0,0,1.0513,-72.9234,-117.531)">
                <path d="M1352.21,2253.19L1455.44,2253.19C1455.44,2253.19 1448,2245.25 1402.05,2244.56C1369.61,2244.08 1352.21,2253.19 1352.21,2253.19Z" style="fill:none;stroke:black;stroke-width:3.96px;"/>
            </g>
            <g transform="matrix(0.793268,0,0,0.817264,290.511,434.559)">
                <path d="M1576.36,2342.4C1572.92,2220.33 1518.95,2179.61 1424.01,2178.64L1384.71,2178.31C1284.92,2179.26 1228.51,2222.22 1229.97,2359.76L1230.27,2481.48C1225.98,2627.76 1282.8,2669.26 1382.35,2673.56L1434.26,2673.37C1524.97,2668.22 1576.69,2625.18 1577.37,2488.43L1576.36,2342.4Z" style="fill:none;stroke:black;stroke-width:7.76px;"/>
            </g>
            <g transform="matrix(0.54184,0,0,0.585812,642.362,1003.68)">
                <path d="M1576.36,2342.4C1572.92,2220.33 1518.95,2179.61 1424.01,2178.64L1384.71,2178.31C1284.92,2179.26 1228.51,2222.22 1229.97,2359.76L1230.27,2481.48C1225.98,2627.76 1282.8,2669.26 1382.35,2673.56L1434.26,2673.37C1524.97,2668.22 1576.69,2625.18 1577.37,2488.43L1576.36,2342.4Z" style="fill:url(#_Linear1);stroke:black;stroke-width:11.08px;"/>
            </g>
            <g>
                <path d="M1311.15,2456.24L1359.66,2471.18L1360.1,2475.37L1361.17,2477.26L1361.05,2480.32L1354.9,2480.32C1354.9,2480.32 1342.78,2482.89 1330.43,2484.73C1323.8,2485.71 1310.51,2487.45 1310.51,2487.45" style="fill:rgb(219,219,219);stroke:black;stroke-width:2.08px;"/>
                <path d="M1308.8,2462.49C1308.28,2461.04 1307.9,2457.28 1308.8,2456.24C1309.69,2455.2 1312.44,2455.82 1314.19,2456.24C1316.81,2456.88 1321.04,2458.88 1324.52,2460.06C1328.12,2461.29 1332.08,2462.37 1335.84,2463.61C1339.63,2464.85 1344.03,2466.48 1347.24,2467.51C1349.84,2468.34 1353.13,2469.03 1355.11,2469.76C1356.52,2470.27 1358.65,2471.5 1359.1,2471.84C1359.44,2472.12 1358.22,2471.84 1357.78,2471.84C1356.53,2471.84 1353.65,2472.05 1351.6,2471.84C1347.95,2471.48 1340.67,2470.44 1335.84,2469.69C1331.42,2469 1326.62,2468.12 1322.62,2467.32C1319.02,2466.61 1314.18,2465.74 1311.88,2464.93C1310.64,2464.5 1309.23,2463.73 1308.8,2462.49Z" style="fill:white;"/>
                <path d="M1359.77,2475.7C1359.16,2475.43 1358.14,2475.75 1357.51,2475.98C1356.94,2476.19 1355.86,2476.77 1356.04,2477.06C1356.21,2477.35 1357.71,2477.63 1358.57,2477.72C1359.42,2477.82 1360.97,2477.96 1361.17,2477.63C1361.37,2477.29 1360.38,2475.97 1359.77,2475.7Z" style="fill:white;"/>
                <path d="M1310.51,2480.32C1314.58,2480.52 1322.72,2480.94 1327.75,2480.94C1332.06,2480.94 1336.64,2480.62 1340.66,2480.32C1344.42,2480.03 1349.49,2479.36 1351.9,2479.13C1352.96,2479.03 1355.29,2478.56 1355.11,2478.96C1354.93,2479.37 1352.43,2481.16 1350.8,2481.58C1347.77,2482.37 1341.3,2483.02 1336.9,2483.7C1332.74,2484.34 1327.79,2485.17 1324.43,2485.65C1321.87,2486.01 1319.06,2486.24 1316.74,2486.54C1314.66,2486.81 1311.89,2487.24 1310.51,2487.45" style="fill:rgb(187,187,187);"/>
                <path d="M1311.15,2456.24L1359.66,2471.18L1360.1,2475.37L1361.17,2477.26L1361.05,2480.32L1354.9,2480.32C1354.9,2480.32 1342.78,2482.89 1330.43,2484.73C1323.8,2485.71 1310.51,2487.45 1310.51,2487.45" style="fill:none;stroke:black;stroke-width:2.08px;"/>
                <path d="M1310.8,2422.39L1436.74,2410.43L1469.85,2387.36L1482.39,2388.69L1472.58,2412.82L1402.92,2434.8L1374.19,2441.26L1377.47,2442.79L1372.43,2444.2L1367.28,2442.84L1308.8,2454.82" style="fill:rgb(219,219,219);"/>
                <path d="M1310.51,2429.28L1450.88,2411.83L1437.2,2410.29" style="fill:none;stroke:black;stroke-width:0.83px;"/>
                <path d="M1465.48,2414.59L1454.03,2412.49L1369.81,2427.53L1397.8,2435.78" style="fill:none;stroke:black;stroke-width:0.83px;"/>
                <path d="M1310.51,2442.37L1373.18,2431.65L1393.36,2437.2" style="fill:none;stroke:black;stroke-width:0.83px;"/>
                <path d="M1375.1,2442.37L1406.75,2453.42L1405.45,2463.83C1405.45,2463.83 1384.92,2466.17 1375.19,2466.19C1366.57,2466.22 1354.76,2465.51 1346.3,2464.57C1337.94,2463.65 1308.8,2454.82 1308.8,2454.82" style="fill:rgb(218,218,218);stroke:black;stroke-width:2.08px;"/>
                <path d="M1367.15,2443.14C1368.57,2448.96 1371.41,2460.59 1371.41,2460.59C1371.41,2460.59 1378.59,2461.26 1387.6,2461.5C1392.71,2461.63 1402.33,2461.79 1405.19,2462.15C1405.71,2462.22 1405.25,2463.54 1404.74,2463.67C1402.77,2464.17 1397.2,2464.9 1393.39,2465.15C1387.6,2465.52 1377.71,2466.08 1369.93,2465.91C1362.18,2465.75 1353.53,2464.97 1346.72,2464.16C1340.81,2463.46 1334.24,2462.16 1329.13,2461.05C1324.72,2460.1 1319.31,2458.42 1316.06,2457.5C1313.89,2456.89 1311.04,2455.98 1309.61,2455.53" style="fill:rgb(163,163,163);"/>
                <path d="M1368.33,2443.93C1371.82,2445.2 1385.97,2450.25 1392.38,2451.84C1397.06,2453 1409.45,2455.05 1406.75,2453.47C1404.06,2451.89 1382.07,2443.91 1376.19,2442.37C1374.56,2441.94 1372.78,2443.97 1371.47,2444.23C1370.44,2444.43 1367.35,2443.57 1368.33,2443.93Z" style="fill:white;"/>
                <path d="M1375.1,2442.37L1406.75,2453.42L1405.45,2463.83C1405.45,2463.83 1384.92,2466.17 1375.19,2466.19C1366.57,2466.22 1354.76,2465.51 1346.3,2464.57C1337.94,2463.65 1308.8,2454.82 1308.8,2454.82" style="fill:none;stroke:black;stroke-width:2.08px;"/>
                <path d="M1310.8,2422.39L1436.74,2410.43L1469.79,2387.36L1482.39,2388.69L1472.37,2412.74C1472.37,2412.74 1442.51,2423.98 1402.45,2434.7C1392.97,2437.24 1374.19,2441.26 1374.19,2441.26L1377.47,2442.79L1372.43,2444.2L1367.28,2442.84L1308.8,2454.82" style="fill:none;stroke:black;stroke-width:2.08px;"/>
            </g>
            <g transform="matrix(0.54184,0,0,0.585812,642.362,1003.68)">
                <path d="M1576.36,2342.4C1572.92,2220.33 1518.95,2179.61 1424.01,2178.64L1384.71,2178.31C1284.92,2179.26 1228.51,2222.22 1229.97,2359.76L1230.27,2481.48C1225.98,2627.76 1282.8,2669.26 1382.35,2673.56L1434.26,2673.37C1524.97,2668.22 1576.69,2625.18 1577.37,2488.43L1576.36,2342.4Z" style="fill:none;stroke:black;stroke-width:11.08px;"/>
            </g>
            <g transform="matrix(1.0513,0,0,1.0513,-72.9234,-124.406)">
                <path d="M1291.36,2270.02C1291.36,2270.02 1299.27,2275.91 1317.05,2275.71C1352.55,2275.3 1455.54,2275.76 1491.51,2275.71C1506.38,2275.68 1516.47,2269.71 1516.47,2269.71C1491.42,2236.68 1467.14,2225.82 1420.2,2225.33L1390.54,2225.07C1343.05,2225.54 1317.02,2236.56 1291.36,2270.02Z" style="fill:none;stroke:black;stroke-width:3.96px;"/>
            </g>
            <g transform="matrix(1.0513,0,0,1.0513,-72.9234,-124.406)">
                <path d="M1486.29,2275.71L1322.45,2275.71C1306.96,2292.86 1297.57,2319.43 1297.82,2356.66L1298.54,2473.48C1297.89,2552.18 1339.73,2586.57 1392.96,2586.87L1420.74,2586.95C1465.91,2586.64 1511.04,2557.57 1512.3,2467.15L1511.81,2359.11C1511.17,2319.93 1501.72,2292.89 1486.29,2275.71Z" style="fill:none;stroke:black;stroke-width:3.96px;"/>
            </g>
        </g>
    </g>
    <defs>
        <linearGradient id="_Linear1" x1="0" y1="0" x2="1" y2="0" gradientUnits="userSpaceOnUse" gradientTransform="matrix(0.356049,-284.473,307.56,0.329323,1405.63,2520.66)"><stop offset="0" style="stop-color:rgb(191,219,255);stop-opacity:1"/><stop offset="1" style="stop-color:rgb(0,103,233);stop-opacity:1"/></linearGradient>
    </defs>
</svg>
