<?xml version="1.0" encoding="UTF-8" standalone="no"?>
<!DOCTYPE svg PUBLIC "-//W3C//DTD SVG 1.1//EN" "http://www.w3.org/Graphics/SVG/1.1/DTD/svg11.dtd">
<svg width="100%" height="100%" viewBox="0 0 150 173" version="1.1" xmlns="http://www.w3.org/2000/svg" xmlns:xlink="http://www.w3.org/1999/xlink" xml:space="preserve" xmlns:serif="http://www.serif.com/" style="fill-rule:evenodd;clip-rule:evenodd;stroke-linecap:round;stroke-linejoin:round;stroke-miterlimit:1.5;">
    <g transform="matrix(0.375141,0,0,0.339138,-451.832,-732.996)">
        <g transform="matrix(1.13092,0,0,1.04071,-183.22,-108.812)">
            <path d="M1578.61,2371.89C1577.9,2261.45 1509.3,2181.36 1423.34,2181.36L1384.4,2181.36C1298.43,2181.36 1228.26,2262.84 1227.01,2374L1227.01,2476.44C1229.64,2604.56 1314.38,2667.52 1396.9,2669.38L1432.66,2669.38C1503.84,2667.86 1577.25,2607.28 1578.61,2479.12L1578.61,2371.89ZM1558.97,2371.99L1558.97,2478.96C1557.73,2590.61 1494.59,2644.3 1432.56,2645.77C1432.47,2645.77 1397.1,2645.77 1397.1,2645.77C1324.29,2644.05 1249.12,2589.11 1246.65,2476.2C1246.65,2476.14 1246.65,2374.17 1246.65,2374.17C1247.81,2276.74 1309.03,2204.97 1384.4,2204.97L1423.34,2204.97C1498.56,2204.97 1558.31,2275.37 1558.97,2371.99L1558.97,2371.99Z" style="fill:rgb(88,88,88);"/>
        </g>
        <path d="M1486.29,2275.71L1322.45,2275.71C1306.96,2292.86 1297.57,2319.43 1297.82,2356.66L1298.54,2473.48C1297.89,2552.18 1339.73,2586.57 1392.96,2586.87L1420.74,2586.95C1465.91,2586.64 1511.04,2557.57 1512.3,2467.15L1511.81,2359.11C1511.17,2319.93 1501.72,2292.89 1486.29,2275.71Z" style="fill:none;stroke:rgb(88,88,88);stroke-width:11.65px;"/>
        <g transform="matrix(0.51113,0,0,0.554297,688.762,1081.25)">
            <path d="M1576.36,2342.4C1572.92,2220.33 1518.95,2179.61 1424.01,2178.64L1384.71,2178.31C1284.92,2179.26 1228.51,2222.22 1229.97,2359.76L1230.27,2481.48C1226.5,2613.18 1286.54,2670.56 1382.35,2673.56L1434.26,2673.37C1511.25,2670.53 1576.69,2625.18 1577.37,2488.43L1576.36,2342.4Z" style="fill:none;stroke:rgb(88,88,88);stroke-width:13.17px;"/>
        </g>
        <g transform="matrix(0.754559,0,0,0.777384,345.7,531.688)">
            <path d="M1576.36,2342.4C1572.92,2220.33 1518.95,2179.61 1424.01,2178.64L1384.71,2178.31C1284.92,2179.26 1228.51,2222.22 1229.97,2359.76L1230.27,2481.48C1226.5,2613.18 1286.54,2670.56 1382.35,2673.56L1434.26,2673.37C1511.25,2670.53 1576.69,2625.18 1577.37,2488.43L1576.36,2342.4Z" style="fill:none;stroke:rgb(88,88,88);stroke-width:9.14px;"/>
        </g>
        <g transform="matrix(1.01706,0,0,1.08649,-24.2074,-192.443)">
            <path d="M1289.87,2275.71L1519.17,2275.71C1500.8,2239.58 1467.14,2225.82 1420.2,2225.33L1390.54,2225.07C1343.05,2225.54 1308.57,2239 1289.87,2275.71Z" style="fill:white;stroke:rgb(88,88,88);stroke-width:6.67px;"/>
        </g>
        <g transform="matrix(1,0,0,1,0.949522,12.3546)">
            <path d="M1352.21,2253.19L1455.44,2253.19C1455.44,2253.19 1448,2245.25 1402.05,2244.56C1369.61,2244.08 1352.21,2253.19 1352.21,2253.19Z" style="fill:rgb(170,170,170);"/>
        </g>
    </g>
</svg>
